<?xml version="1.0" standalone="no"?>
<!DOCTYPE svg PUBLIC "-//W3C//DTD SVG 20010904//EN"
 "http://www.w3.org/TR/2001/REC-SVG-20010904/DTD/svg10.dtd">
<svg version="1.0" xmlns="http://www.w3.org/2000/svg"
 width="340.000000pt" height="340.000000pt" viewBox="0 0 340.000000 340.000000"
 preserveAspectRatio="xMidYMid meet">
<metadata>
Created by potrace 1.14, written by Peter Selinger 2001-2017
</metadata>
<g transform="translate(0.000000,340.000000) scale(0.100000,-0.100000)"
fill="#000000" stroke="none">
<path d="M1490 3279 c-113 -66 -227 -133 -255 -148 -27 -15 -97 -56 -153 -89
-57 -34 -105 -62 -106 -62 -2 0 -75 -42 -162 -93 -87 -51 -230 -133 -317 -182
-176 -101 -170 -88 -68 -146 25 -14 188 -108 361 -209 173 -100 335 -193 360
-207 25 -14 144 -83 266 -154 122 -70 237 -135 256 -145 l35 -16 249 144 c242
141 603 350 674 390 19 11 124 72 233 135 173 101 196 117 180 128 -30 20
-250 145 -256 145 -3 0 -196 -111 -429 -247 -233 -135 -432 -251 -443 -257
-11 -7 -64 -37 -117 -69 l-97 -58 -40 26 c-23 14 -42 25 -45 25 -2 0 -55 30
-117 66 -63 37 -139 81 -169 98 -225 125 -439 252 -437 258 2 6 145 91 343
204 22 12 134 77 249 144 139 80 214 118 227 114 10 -3 79 -41 154 -85 75 -43
138 -79 139 -79 2 0 32 -17 66 -38 35 -21 89 -53 120 -70 l55 -31 83 49 c45
28 84 50 86 50 2 0 25 13 50 29 34 21 42 31 33 39 -12 9 -192 114 -308 180
-25 14 -145 83 -267 154 -122 70 -223 128 -225 128 -2 0 -95 -55 -208 -121z"/>
<path d="M1562 2690 l-132 -77 61 -37 c33 -20 62 -36 65 -36 2 0 27 -15 56
-34 85 -54 80 -54 227 30 72 42 131 78 129 79 -7 6 -268 155 -270 154 -2 0
-63 -36 -136 -79z"/>
<path d="M200 1572 l0 -788 33 -17 c33 -17 62 -33 222 -127 50 -29 110 -64
135 -78 25 -14 99 -56 165 -95 66 -38 140 -81 165 -95 47 -26 185 -106 210
-122 8 -6 32 -19 52 -30 20 -11 114 -64 207 -119 94 -55 171 -96 172 -93 4 31
3 1556 -2 1563 -3 6 -64 43 -135 84 l-129 75 -3 -626 c-2 -504 -5 -625 -15
-621 -7 3 -109 61 -227 129 -118 68 -296 171 -396 229 l-181 104 -1 473 -1
473 32 -20 c77 -46 506 -291 511 -291 3 0 5 70 5 155 l0 154 -402 232 c-221
128 -405 234 -409 236 -5 2 -8 -351 -8 -785z"/>
<path d="M3065 2283 c-135 -78 -535 -309 -570 -328 -11 -6 -41 -24 -67 -40
l-47 -29 1 -468 c0 -257 2 -468 4 -468 3 0 64 34 137 76 l132 76 0 255 c0 158
4 261 10 269 9 11 247 154 257 154 3 0 5 -187 6 -415 l1 -416 -37 -23 c-35
-22 -303 -179 -389 -227 -21 -12 -111 -64 -201 -116 -89 -51 -169 -96 -177
-99 -13 -5 -15 73 -17 620 l-3 626 -130 -75 c-71 -42 -132 -78 -134 -81 -7 -7
-7 -1554 -1 -1565 4 -5 17 -1 30 9 14 9 41 26 61 37 20 11 314 180 653 375
l615 355 1 788 c0 433 -1 787 -2 786 -2 0 -61 -34 -133 -76z"/>
<path d="M749 1393 c-1 -10 -2 -79 -3 -153 l-1 -135 90 -53 c111 -67 174 -102
180 -102 3 0 5 69 5 153 l0 153 -98 56 c-54 31 -115 66 -135 78 -35 21 -37 21
-38 3z"/>
</g>
</svg>
